<svg width="128" height="128" viewBox="0 0 128 128" fill="none" xmlns="http://www.w3.org/2000/svg">
  <defs>
    <linearGradient id="bg" x1="20" y1="14" x2="106" y2="116" gradientUnits="userSpaceOnUse">
      <stop stop-color="#FFFDFD"/>
      <stop offset="1" stop-color="#FCE7EB"/>
    </linearGradient>
    <radialGradient id="mist" cx="0" cy="0" r="1" gradientUnits="userSpaceOnUse" gradientTransform="translate(67 63) rotate(90) scale(52)">
      <stop stop-color="#FAD7E1" stop-opacity="0.92"/>
      <stop offset="1" stop-color="#FAD7E1" stop-opacity="0"/>
    </radialGradient>
    <radialGradient id="roseCore" cx="0" cy="0" r="1" gradientUnits="userSpaceOnUse" gradientTransform="translate(0 0) rotate(90) scale(16)">
      <stop stop-color="#FFF7FA"/>
      <stop offset="1" stop-color="#F7A7BC"/>
    </radialGradient>
    <linearGradient id="leaf" x1="0" y1="0" x2="1" y2="1">
      <stop stop-color="#D7D0C6"/>
      <stop offset="1" stop-color="#B8AF9F"/>
    </linearGradient>
    <linearGradient id="nail" x1="71" y1="62" x2="98" y2="104" gradientUnits="userSpaceOnUse">
      <stop stop-color="#FFD3DE"/>
      <stop offset="1" stop-color="#F48BA8"/>
    </linearGradient>
  </defs>

  <rect x="4" y="4" width="120" height="120" rx="36" fill="url(#bg)"/>
  <ellipse cx="66" cy="64" rx="46" ry="41" fill="url(#mist)"/>

  <g opacity="0.9">
    <path d="M22 31C27 21 36 19 43 23C35 27 31 34 29 42C24 40 20 35 22 31Z" fill="url(#leaf)"/>
    <path d="M28 19C34 16 40 18 44 24C38 24 33 27 29 32C25 29 23 23 28 19Z" fill="url(#leaf)"/>
    <path d="M33 37C39 32 45 33 50 39C44 40 39 44 36 49C31 47 28 41 33 37Z" fill="url(#leaf)"/>
  </g>

  <g transform="translate(37 39)">
    <circle r="17" fill="url(#roseCore)"/>
    <path d="M0 -11C5 -11 9 -7 9 -2C9 4 4 8 -1 9C-7 10 -11 6 -11 1C-11 -6 -7 -11 0 -11Z" fill="#FCE4EC"/>
    <path d="M0 -7C3 -7 6 -5 6 -1C6 3 2 5 -1 5C-5 5 -7 2 -7 -1C-7 -5 -4 -7 0 -7Z" fill="#F7C2D1"/>
    <path d="M-1 -2C1 -3 3 -2 4 0C4 2 2 4 -1 4C-3 4 -4 3 -4 1C-4 -1 -3 -2 -1 -2Z" fill="#FFF5F8"/>
    <path d="M-9 5C-5 3 -1 5 1 9C-2 12 -6 12 -10 10C-12 8 -12 6 -9 5Z" fill="#F8CCD8"/>
    <path d="M6 5C10 4 13 7 13 11C10 13 6 13 3 11C2 8 3 6 6 5Z" fill="#F8CCD8"/>
  </g>

  <g opacity="0.92">
    <path d="M77 84C80 79 86 77 91 79C88 83 86 88 86 94C82 93 78 89 77 84Z" fill="url(#leaf)"/>
    <path d="M85 72C91 70 96 72 99 76C94 76 90 79 88 83C84 82 81 75 85 72Z" fill="url(#leaf)"/>
    <path d="M69 88C73 83 79 83 83 87C78 89 75 92 73 97C69 96 66 92 69 88Z" fill="url(#leaf)"/>
  </g>

  <g transform="translate(89 90)">
    <circle r="12" fill="url(#roseCore)"/>
    <path d="M0 -8C4 -8 7 -5 7 -1C7 3 4 6 0 7C-4 7 -7 4 -7 0C-7 -5 -4 -8 0 -8Z" fill="#FCE4EC"/>
    <path d="M0 -5C2 -5 4 -3 4 -1C4 2 2 3 0 3C-3 3 -4 2 -4 -1C-4 -3 -2 -5 0 -5Z" fill="#F7C2D1"/>
    <path d="M-6 3C-3 2 0 4 1 7C-1 9 -4 9 -6 8C-8 6 -8 4 -6 3Z" fill="#F8CCD8"/>
    <path d="M4 3C7 2 9 4 9 7C7 9 4 9 2 8C1 5 2 4 4 3Z" fill="#F8CCD8"/>
  </g>

  <g opacity="0.86">
    <path d="M74 61C76 59 79 60 80 62L86 77C87 80 84 82 81 80L70 69C68 67 69 63 71 62L74 61Z" fill="#FCE2E8"/>
    <path d="M80 58C82 56 85 56 87 59L93 75C94 78 91 80 88 79L77 66C75 64 75 61 77 59L80 58Z" fill="#F7C1D0"/>
    <path d="M86 56C88 54 91 55 93 58L99 72C100 75 98 78 95 77L84 64C82 62 82 58 84 57L86 56Z" fill="url(#nail)"/>
    <path d="M91 56C93 54 96 55 98 58L103 69C104 72 102 75 99 74L89 63C87 61 88 58 90 57L91 56Z" fill="url(#nail)"/>
  </g>

  <g fill="#D7A4B7" opacity="0.8">
    <path d="M90 29L91.8 34.2L97 36L91.8 37.8L90 43L88.2 37.8L83 36L88.2 34.2L90 29Z"/>
    <path d="M100 40L100.9 42.6L103.5 43.5L100.9 44.4L100 47L99.1 44.4L96.5 43.5L99.1 42.6L100 40Z"/>
    <path d="M29 84L29.9 86.7L32.5 87.5L29.9 88.4L29 91L28.1 88.4L25.5 87.5L28.1 86.7L29 84Z"/>
    <circle cx="102" cy="95" r="2"/>
    <circle cx="21" cy="64" r="1.8"/>
  </g>

  <rect x="4" y="4" width="120" height="120" rx="36" stroke="#F4D4DD"/>
</svg>
